<?xml version="1.0" encoding="UTF-8"?><svg id="a" xmlns="http://www.w3.org/2000/svg" viewBox="0 0 448.4 437.1"><defs><style>.b{letter-spacing:-.02em;}.c{font-family:Copperplate-Light, Copperplate;font-size:42.37px;letter-spacing:.29em;}.c,.d{fill:#c4a04b;}.e{letter-spacing:-.04em;}.f{letter-spacing:-.04em;}.g{letter-spacing:-.08em;}.h{letter-spacing:-.08em;}.i{letter-spacing:-.08em;}.j,.k{fill:#f4f4f4;}.l{letter-spacing:-.12em;}.k{font-family:Copperplate-Bold, Copperplate;font-size:63.56px;}.m{letter-spacing:-.34em;}.n{fill:none;stroke:#c4a04b;stroke-miterlimit:10;}</style></defs><g><g><path class="d" d="M222.1,.77c0,.47,0,.92,0,1.37-.26,12.51-.05,25.03-.11,37.55,0,.54,0,.93-.65,1.2-.83,.35-1.17,1.35-.93,2.21,.27,.96,1.02,1.53,2.01,1.52,.94,0,1.72-.65,1.95-1.61,.2-.84-.2-1.85-1.03-2.18-.58-.23-.57-.57-.57-1.03,0-11.28,0-22.57,0-33.85V.82c.23,.28,.22,.67,.15,1.04-.06,.32-.05,.63,.02,.94,2.19,8.85,5.59,17.18,10.78,24.73,2.26,3.29,4.85,6.29,7.8,8.97,.19,.17,.44,.26,.19,.64-3.22,4.85-5.33,10.2-6.95,15.75-1.65,5.67-2.64,11.46-3.11,17.34-.27,3.42-.41,6.84-.34,10.26,.01,.49-.13,.59-.6,.59-5.55-.01-11.1-.02-16.65,.01-.6,0-.68-.19-.67-.72,.11-8.71-.73-17.31-2.97-25.75-1.55-5.83-3.66-11.44-6.85-16.6-.73-1.19-.74-1.18,.29-2.15,5.83-5.51,10.04-12.12,13.28-19.4,1.96-4.4,3.46-8.95,4.64-13.62,.12-.48-.02-.94,.01-1.41,.02-.24,0-.5,.29-.67Z"/><path class="d" d="M266.49,56.88c-.63-.43-.85-1.22-.56-1.96,.25-.65,.97-1.14,1.68-.98,.49,.11,.64-.12,.85-.42,5.14-7.5,10.29-14.99,15.43-22.48l2.34-3.41c-.28,.08-.45,.35-.58,.62-.11,.24-.25,.44-.44,.61-5.49,4.88-11.55,8.86-18.44,11.51-3,1.15-6.09,1.96-9.27,2.4-.2,.03-.41-.03-.42,.34-.08,4.69-1.11,9.2-2.57,13.63-1.49,4.52-3.47,8.81-5.84,12.93-5.67,9.6-11.97,11.4-11.97,11.4h13.17l16.62-24.2Z"/><path class="d" d="M178.27,56.88c.63-.43,.85-1.22,.56-1.96-.25-.65-.97-1.14-1.68-.98-.49,.11-.64-.12-.85-.42-5.14-7.5-10.29-14.99-15.43-22.48l-2.34-3.41c.28,.08,.45,.35,.58,.62,.11,.24,.25,.44,.44,.61,5.49,4.88,11.55,8.86,18.44,11.51,3,1.15,6.09,1.96,9.27,2.4,.2,.03,.41-.03,.42,.34,.08,4.69,1.11,9.2,2.57,13.63,1.49,4.52,3.47,8.81,5.84,12.93,5.67,9.6,11.97,11.4,11.97,11.4h-13.17l-16.62-24.2Z"/><path class="d" d="M254.37,89.89c-.41,.05-.82-.02-1.23,.02-.39,.03-.58-.1-.68-.48-.17-.66-.36-1.32-.59-1.96-.14-.39-.13-.69,.14-1,.67-.76,.88-1.63,.75-2.65-.06-.48-.17-.59-.64-.58-2.92,.02-5.84,0-8.77,0-2.72,0-5.43,0-8.15,0-.19,0-.56-.16-.55,.19,.02,.83-.37,1.72,.34,2.48,.6,.63,.74,1.35,.33,2.17-.28,.56-.19,1.42-.68,1.73-.28,.17-.66,.16-1.07,.13-.11-.04-.25-.06-.45-.04-.06,0-.12,0-.18,0-.04,0-.07,0-.11,0-.02,0-.05,0-.07,0-.13-.02-.21-.01-.29,.01-.2,0-.39-.01-.59,0-.39,.03-.58-.1-.68-.48-.17-.66-.36-1.32-.59-1.96-.14-.39-.13-.69,.14-1,.67-.76,.88-1.63,.75-2.65-.06-.48-.17-.59-.64-.58-2.92,.02-5.84,0-8.77,0-2.72,0-5.43,0-8.15,0-.19,0-.56-.16-.55,.19,.02,.83-.37,1.72,.34,2.48,.6,.63,.74,1.35,.33,2.17-.28,.56-.19,1.42-.68,1.73-.32,.2-.79,.15-1.25,.12-.11-.03-.24-.05-.42-.03-.02,0-.05,0-.07,0-.02,0-.04,0-.06,0-.02,0-.05,0-.07,0-.12-.02-.21-.01-.28,.01-.25,0-.5-.02-.75,0-.39,.03-.58-.1-.68-.48-.17-.66-.36-1.32-.59-1.96-.14-.39-.13-.69,.14-1,.67-.76,.88-1.63,.75-2.65-.06-.48-.17-.59-.64-.58-2.92,.02-5.84,0-8.77,0-2.72,0-5.43,0-8.15,0-.19,0-.56-.16-.55,.19,.02,.83-.37,1.72,.34,2.48,.6,.63,.74,1.35,.33,2.17-.28,.56-.19,1.42-.68,1.73-.45,.28-1.19,.08-1.81,.09-.02,0-.05,0-.07,0-.39-.07-.49,.1-.49,.48,.02,1.46,.03,2.92,0,4.38,0,.42,.15,.47,.51,.47,3.63-.01,7.26,0,10.89,0h0c3.47-.01,6.94-.02,10.41,0,.03,0,.05,0,.09,0,3.63-.01,7.26,0,10.89,0h0c3.42-.01,6.84-.02,10.26,0,.03,0,.06,0,.09,0,3.63-.01,7.26,0,10.89,0h0c3.56-.01,7.12-.02,10.68,0,.54,0,.75-.08,.72-.68-.05-1.32-.05-2.65,0-3.97,.02-.6-.18-.74-.72-.68Z"/></g><g><rect class="j" x="172.29" y="116.05" width="100.34" height="7.72"/><rect class="j" x="156.85" y="102.54" width="131.21" height="7.72"/><g><path class="j" d="M203.17,199.44v-66.99h-15.44v75.62c5.03-3.08,10.18-5.94,15.44-8.63Z"/><path class="j" d="M187.73,212.43v114.91h15.44v-123.81c-5.26,2.79-10.43,5.73-15.44,8.9Z"/></g><g><path class="j" d="M230.18,187.11v-54.66h-15.44v61.38c5.1-2.34,10.26-4.57,15.44-6.72Z"/><path class="j" d="M214.74,197.67v91.08h15.44v-98.24c-5.14,2.31-10.31,4.68-15.44,7.16Z"/></g><g><path class="j" d="M257.2,176.06v-43.61h-15.44v49.86c5.13-2.12,10.28-4.21,15.44-6.25Z"/><path class="j" d="M241.76,185.35v68.67h15.44v-75.51c-5.15,2.27-10.3,4.55-15.44,6.84Z"/></g></g><g><path class="d" d="M260.18,176.83c13.41-5.92,26.87-11.75,40.43-17.37-13.63,4.65-27.13,9.69-40.52,15.01l.09,2.35Z"/><path class="d" d="M176.91,327.34c-11.68-1.57-22.47-7.56-30.84-15.8-8.42-8.56-12.36-20.88-12.37-32.76,.18-24.51,17.5-44.73,35.78-59.04,4.63-3.63,9.44-6.99,14.39-10.11v4.35c-13.94,9.03-26.17,19.61-35.95,33.28-22.78,32.01-9.98,71.08,28.99,80.08h0Z"/><polygon class="d" points="304.68 147.38 307.67 153.75 314.71 153.47 309.57 158.29 312.01 164.89 305.85 161.5 300.32 165.86 301.64 158.94 295.79 155.04 302.77 154.16 304.68 147.38"/></g></g><rect class="d" x="1.29" y="342.94" width="445.83" height="52.63"/><text class="k" transform="translate(7.97 388.32)"><tspan class="l" x="0" y="0">J</tspan><tspan class="i" x="27.71" y="0">.H</tspan><tspan x="86.38" y="0">.</tspan><tspan class="m" x="105.77" y="0"> </tspan><tspan class="b" x="103.54" y="0">L</tspan><tspan class="h" x="144.67" y="0">A</tspan><tspan class="e" x="185.47" y="0">WG</tspan><tspan class="g" x="286.28" y="0">I</tspan><tspan class="f" x="305.92" y="0">C</tspan><tspan class="i" x="349.27" y="0">A</tspan><tspan x="390.07" y="0">L</tspan></text><text class="c" transform="translate(45.32 424.76)"><tspan x="0" y="0">SOLUTIONS</tspan></text><rect class="n" x="1.29" y="342.94" width="445.83" height="92.75"/></svg>