<?xml version="1.0" encoding="UTF-8"?><svg id="a" xmlns="http://www.w3.org/2000/svg" viewBox="0 0 448.4 437.1"><defs><style>.b{letter-spacing:0em;}.c{letter-spacing:-.04em;}.d{letter-spacing:-.04em;}.e{letter-spacing:-.08em;}.f{letter-spacing:-.02em;}.g{letter-spacing:-.08em;}.h,.i{fill:#c4a04b;}.j{fill:#2b2f3e;}.i{font-family:Copperplate-Light, Copperplate;font-size:42.52px;letter-spacing:.29em;}.k{letter-spacing:-.12em;}.l{fill:#f4f4f4;font-family:Copperplate-Bold, Copperplate;font-size:63.79px;}.m{letter-spacing:-.34em;}.n{fill:none;stroke:#c4a04b;stroke-miterlimit:10;}</style></defs><g><g><path class="h" d="M222.09,0c0,.47,0,.92,0,1.37-.26,12.56-.05,25.12-.11,37.68,0,.55,0,.94-.65,1.21-.84,.35-1.17,1.35-.93,2.21,.27,.96,1.02,1.53,2.02,1.53,.95,0,1.73-.65,1.96-1.61,.2-.84-.2-1.85-1.03-2.18-.58-.23-.58-.57-.58-1.04,0-11.32,0-22.65,0-33.97V.05c.23,.28,.22,.68,.15,1.05-.06,.33-.05,.63,.02,.94,2.2,8.88,5.61,17.24,10.82,24.82,2.27,3.3,4.87,6.31,7.83,9,.19,.17,.44,.26,.19,.64-3.23,4.87-5.35,10.23-6.97,15.8-1.66,5.69-2.65,11.5-3.12,17.4-.27,3.43-.41,6.86-.34,10.3,.01,.49-.13,.59-.6,.59-5.57-.01-11.14-.02-16.71,.01-.61,0-.68-.19-.67-.73,.11-8.74-.73-17.37-2.98-25.84-1.56-5.85-3.67-11.48-6.87-16.66-.74-1.19-.74-1.19,.29-2.16,5.85-5.53,10.07-12.17,13.32-19.47,1.97-4.41,3.47-8.98,4.65-13.67,.12-.49-.02-.95,.01-1.42,.02-.24,0-.51,.29-.67Z"/><path class="h" d="M266.64,56.31c-.63-.44-.85-1.22-.57-1.96,.25-.65,.98-1.14,1.68-.98,.49,.11,.64-.12,.86-.43,5.16-7.52,10.32-15.04,15.49-22.56l2.35-3.42c-.28,.08-.46,.35-.58,.63-.11,.24-.25,.45-.45,.62-5.51,4.9-11.59,8.89-18.5,11.55-3.01,1.16-6.11,1.97-9.31,2.41-.2,.03-.42-.03-.42,.34-.08,4.7-1.11,9.23-2.57,13.68-1.49,4.53-3.48,8.84-5.86,12.98-5.69,9.63-12.01,11.44-12.01,11.44h13.21l16.68-24.29Z"/><path class="h" d="M178.11,56.31c.63-.44,.85-1.22,.57-1.96-.25-.65-.98-1.14-1.68-.98-.49,.11-.64-.12-.86-.43-5.16-7.52-10.32-15.04-15.49-22.56l-2.35-3.42c.28,.08,.46,.35,.58,.63,.11,.24,.25,.45,.45,.62,5.51,4.9,11.59,8.89,18.5,11.55,3.01,1.16,6.11,1.97,9.31,2.41,.2,.03,.42-.03,.42,.34,.08,4.7,1.11,9.23,2.57,13.68,1.49,4.53,3.48,8.84,5.86,12.98,5.69,9.63,12.01,11.44,12.01,11.44h-13.21l-16.68-24.29Z"/><path class="h" d="M254.47,89.44c-.41,.05-.83-.02-1.24,.02-.39,.03-.58-.1-.68-.48-.17-.66-.36-1.33-.6-1.97-.15-.39-.13-.7,.14-1.01,.67-.77,.88-1.64,.76-2.66-.06-.48-.17-.59-.64-.59-2.93,.02-5.86,0-8.8,0-2.73,0-5.45,0-8.18,0-.19,0-.56-.16-.55,.19,.02,.83-.37,1.73,.34,2.48,.6,.64,.74,1.36,.33,2.18-.28,.57-.19,1.43-.68,1.73-.28,.17-.67,.16-1.07,.13-.11-.04-.25-.06-.45-.04-.06,0-.12,0-.18,0-.04,0-.07,0-.11,0-.02,0-.05,0-.07,0-.13-.02-.21-.01-.29,.01-.2,0-.4-.01-.59,0-.39,.03-.58-.1-.68-.48-.17-.66-.36-1.33-.6-1.97-.15-.39-.13-.7,.14-1.01,.67-.77,.88-1.64,.76-2.66-.06-.48-.17-.59-.64-.59-2.93,.02-5.86,0-8.8,0-2.73,0-5.45,0-8.18,0-.19,0-.56-.16-.55,.19,.02,.83-.37,1.73,.34,2.48,.6,.64,.74,1.36,.33,2.18-.28,.57-.19,1.43-.68,1.73-.32,.2-.79,.15-1.26,.12-.11-.03-.24-.05-.42-.03-.02,0-.05,0-.07,0-.02,0-.04,0-.06,0-.02,0-.05,0-.07,0-.12-.02-.21-.01-.28,.01-.25,0-.5-.02-.75,0-.39,.03-.58-.1-.68-.48-.17-.66-.36-1.33-.6-1.97-.15-.39-.13-.7,.14-1.01,.67-.77,.88-1.64,.76-2.66-.06-.48-.17-.59-.64-.59-2.93,.02-5.86,0-8.8,0-2.73,0-5.45,0-8.18,0-.19,0-.56-.16-.55,.19,.02,.83-.37,1.73,.34,2.48,.6,.64,.74,1.36,.33,2.18-.28,.57-.19,1.43-.68,1.73-.45,.28-1.2,.08-1.81,.09-.02,0-.05,0-.07,0-.4-.07-.49,.1-.49,.49,.02,1.47,.03,2.93,0,4.4,0,.42,.15,.48,.51,.48,3.64-.01,7.28,0,10.93,0h0c3.48-.01,6.97-.02,10.45,0,.03,0,.06,0,.09,0,3.64-.01,7.28,0,10.93,0h0c3.43-.01,6.86-.02,10.29,0,.03,0,.06,0,.09,0,3.64-.01,7.28,0,10.93,0h0c3.57-.01,7.15-.02,10.72,0,.55,0,.75-.08,.72-.69-.05-1.33-.05-2.66,0-3.98,.02-.61-.18-.74-.72-.68Z"/></g><g><rect class="j" x="172.11" y="115.69" width="100.69" height="7.75"/><rect class="j" x="156.62" y="102.13" width="131.68" height="7.75"/><g><path class="j" d="M203.09,199.37v-67.22h-15.49v75.88c5.05-3.09,10.22-5.96,15.49-8.66Z"/><path class="j" d="M187.6,212.41v115.32h15.49v-124.24c-5.27,2.8-10.46,5.75-15.49,8.93Z"/></g><g><path class="j" d="M230.2,187v-54.86h-15.49v61.6c5.12-2.35,10.29-4.59,15.49-6.74Z"/><path class="j" d="M214.71,197.6v91.4h15.49v-98.59c-5.16,2.31-10.34,4.7-15.49,7.19Z"/></g><g><path class="j" d="M257.31,175.91v-43.76h-15.49v50.04c5.15-2.13,10.31-4.22,15.49-6.28Z"/><path class="j" d="M241.82,185.23v68.91h15.49v-75.78c-5.17,2.28-10.33,4.57-15.49,6.87Z"/></g></g><g><path class="h" d="M260.31,176.68c13.46-5.94,26.97-11.79,40.58-17.43-13.68,4.66-27.23,9.72-40.67,15.07l.09,2.36Z"/><path class="h" d="M176.74,327.73c-11.72-1.57-22.55-7.59-30.95-15.85-8.45-8.59-12.4-20.95-12.41-32.87,.18-24.6,17.56-44.89,35.91-59.25,4.65-3.65,9.47-7.01,14.44-10.15v4.37c-13.99,9.06-26.27,19.68-36.07,33.39-22.86,32.12-10.02,71.33,29.09,80.36h0Z"/><polygon class="h" points="304.96 147.13 307.97 153.53 315.03 153.24 309.87 158.08 312.32 164.7 306.13 161.3 300.59 165.67 301.92 158.73 296.04 154.81 303.05 153.93 304.96 147.13"/></g></g><rect class="h" x=".5" y="343.38" width="447.4" height="52.81"/><text class="l" transform="translate(7.2 388.92)"><tspan class="k" x="0" y="0">J</tspan><tspan class="e" x="27.81" y="0">.H</tspan><tspan class="b" x="86.69" y="0">.</tspan><tspan class="m" x="106.14" y="0"> </tspan><tspan class="f" x="103.91" y="0">L</tspan><tspan class="e" x="145.18" y="0">A</tspan><tspan class="d" x="186.13" y="0">WG</tspan><tspan class="g" x="287.29" y="0">I</tspan><tspan class="c" x="307" y="0">C</tspan><tspan class="e" x="350.5" y="0">A</tspan><tspan x="391.45" y="0">L</tspan></text><text class="i" transform="translate(44.68 425.49)"><tspan x="0" y="0">SOLUTIONS</tspan></text><rect class="n" x=".5" y="343.38" width="447.4" height="93.08"/></svg>